# xmcd
#
# Track frame offsets: 
#        150
#        19670
#        42447
#        61380
#        83750
#        98347
#        115667
#        134037
#        152660
#        170157
#        201215
#        215395
#        235737
#        254907
#
# Disc length: 3593 seconds
#
# Revision: 4
# Processed by: cddbd v1.5.2PL0 Copyright (c) Steve Scherf et al.
# Submitted via: ExactAudioCopy v0.95a4
#
DISCID=c10e070e
DTITLE=Super Chikan - Blues Come Home To Roost
DYEAR=1997
DGENRE=Blues
TTITLE0=Down In The Delta
TTITLE1=Well Gone Dry
TTITLE2=Crystal Ball
TTITLE3=Super Chickan Strut
TTITLE4=Mama and The Chillin (Part 1)
TTITLE5=What It Is
TTITLE6=Captain Love Juice
TTITLE7=Camel Toe
TTITLE8=White Rock Rooster
TTITLE9=Bleeding From The Heart
TTITLE10=Mr. Rich Man
TTITLE11=Rockin' (That 'Cane ) and Rollin' (Mary Jane)
TTITLE12=The Real You
TTITLE13=Mama and The Chillin (Part 2)
EXTD=
EXTT0=
EXTT1=
EXTT2=
EXTT3=
EXTT4=
EXTT5=
EXTT6=
EXTT7=
EXTT8=
EXTT9=
EXTT10=
EXTT11=
EXTT12=
EXTT13=
PLAYORDER=
